<?xml version="1.0" encoding="UTF-8" standalone="no"?> <svg xmlns="http://www.w3.org/2000/svg" viewBox="0 0 64 64"><title>device</title><g id="device"><path d="M59,4H5A3,3,0,0,0,2,7V39a3,3,0,0,0,3,3H8v9a3,3,0,0,0,3,3H43a3,3,0,0,0,3-3V50h6a3,3,0,0,0,3-3V42h4a3,3,0,0,0,3-3V7A3,3,0,0,0,59,4ZM8,40H5a1,1,0,0,1-1-1V36H8ZM44,51a1,1,0,0,1-1,1H11a1,1,0,0,1-1-1V33a1,1,0,0,1,1-1H35V47a3,3,0,0,0,3,3h6Zm9-4a1,1,0,0,1-1,1H38a1,1,0,0,1-1-1V19a1,1,0,0,1,1-1h1a3,3,0,0,0,3,3h6a3,3,0,0,0,3-3h1a1,1,0,0,1,1,1ZM41,18h8a1,1,0,0,1-1,1H42A1,1,0,0,1,41,18ZM60,39a1,1,0,0,1-1,1H55V36h5Zm0-5H55V19a3,3,0,0,0-3-3H38a3,3,0,0,0-3,3V30H11a3,3,0,0,0-3,3v1H4V7A1,1,0,0,1,5,6H59a1,1,0,0,1,1,1Z"/><path d="M46.875,55H30a1,1,0,0,0-1,1H25a1,1,0,0,0-1-1H7.125a1,1,0,0,0-.96,1.28l.455,1.56A3.015,3.015,0,0,0,9.5,60h35a3.015,3.015,0,0,0,2.88-2.16l.455-1.56a1,1,0,0,0-.96-1.28ZM9.5,58a1.006,1.006,0,0,1-.96-.72L8.458,57H23a1,1,0,0,0,1,1Zm35.96-.72a1.006,1.006,0,0,1-.96.72H30a1,1,0,0,0,1-1H45.542Z"/></g></svg>