<?xml version="1.0" encoding="UTF-8" standalone="no"?> <svg width="512" height="512" viewBox="0 0 512 512" fill="none" xmlns="http://www.w3.org/2000/svg">
<path fill-rule="evenodd" clip-rule="evenodd" d="M131.714 16C129.517 16 127.409 16.873 125.855 18.4268L26.4268 117.855C24.873 119.409 24 121.517 24 123.714V471.714C24 485.442 35.1289 496.571 48.8571 496.571H396.857C410.585 496.571 421.714 485.442 421.714 471.714V406.016L429.944 414.246C440.283 424.585 457.046 424.585 467.384 414.246L480.246 401.384C490.585 391.046 490.585 374.283 480.246 363.944L421.714 305.412V40.8571C421.714 27.1289 410.585 16 396.857 16H131.714ZM405.143 293.091V40.8571C405.143 36.2811 401.433 32.5714 396.857 32.5714H140V123.714C140 128.29 136.29 132 131.714 132H40.5714V471.714C40.5714 476.29 44.2811 480 48.8571 480H396.857C401.433 480 405.143 476.29 405.143 471.714V389.445L365.637 349.939C355.298 339.6 355.298 322.837 365.637 312.498L366.209 311.927L351.983 297.701C311.504 332.488 251.425 332.487 210.947 297.698C210.775 297.709 210.603 297.714 210.429 297.714H115.143C110.567 297.714 106.857 294.005 106.857 289.429C106.857 284.852 110.567 281.143 115.143 281.143H195.307C185.721 268.599 179.244 254.44 175.877 239.714H106.857C102.281 239.714 98.5714 236.005 98.5714 231.429C98.5714 226.852 102.281 223.143 106.857 223.143H173.414C172.429 209.207 174.129 195.118 178.511 181.714H115.143C110.567 181.714 106.857 178.005 106.857 173.429C106.857 168.852 110.567 165.143 115.143 165.143H185.509C190.47 155.69 196.924 146.816 204.87 138.87C247.173 96.5671 315.76 96.5671 358.063 138.87C398.395 179.202 400.274 243.425 363.701 285.983L377.927 300.209L378.498 299.637C385.708 292.427 396.042 290.245 405.143 293.091ZM123.429 44.2892L52.2892 115.429H123.429V44.2892ZM231.143 181.714C226.567 181.714 222.857 185.424 222.857 190C222.857 194.576 226.567 198.286 231.143 198.286H330.571C335.147 198.286 338.857 194.576 338.857 190C338.857 185.424 335.147 181.714 330.571 181.714H231.143ZM220.786 231.429C216.21 231.429 212.5 235.138 212.5 239.714C212.5 244.29 216.21 248 220.786 248H343C347.576 248 351.286 244.29 351.286 239.714C351.286 235.138 347.576 231.429 343 231.429H220.786ZM106.857 339.143C102.281 339.143 98.5714 342.852 98.5714 347.429C98.5714 352.005 102.281 355.714 106.857 355.714H338.857C343.433 355.714 347.143 352.005 347.143 347.429C347.143 342.852 343.433 339.143 338.857 339.143H106.857ZM106.857 405.429C106.857 400.852 110.567 397.143 115.143 397.143H330.571C335.147 397.143 338.857 400.852 338.857 405.429C338.857 410.005 335.147 413.714 330.571 413.714H115.143C110.567 413.714 106.857 410.005 106.857 405.429ZM216.588 150.588C252.419 114.756 310.514 114.756 346.345 150.588C382.177 186.419 382.177 244.514 346.345 280.345C310.514 316.177 252.419 316.177 216.588 280.345C180.756 244.514 180.756 186.419 216.588 150.588ZM390.216 311.355C394.084 307.487 400.354 307.487 404.221 311.355L468.528 375.662C472.395 379.529 472.395 385.799 468.528 389.667L455.667 402.528C451.799 406.395 445.529 406.395 441.662 402.528L377.355 338.221C373.488 334.354 373.488 328.084 377.355 324.216L390.216 311.355Z"/>
</svg>
