<svg width="20" height="15" viewBox="0 0 20 15" fill="none" xmlns="http://www.w3.org/2000/svg">
<path d="M19.3333 10.2273V10.9091H20V10.2273H19.3333ZM0.666667 0.681818V0H0V0.681818H0.666667ZM0.666667 14.3182H0V15H0.666667V14.3182ZM10.6667 10.2273C10.6667 11.4931 11.1583 12.707 12.0335 13.6021C12.9087 14.4972 14.0957 15 15.3333 15V13.6364C14.4493 13.6364 13.6014 13.2772 12.9763 12.6379C12.3512 11.9985 12 11.1314 12 10.2273H10.6667ZM15.3333 5.45455C14.0957 5.45455 12.9087 5.95738 12.0335 6.85244C11.1583 7.7475 10.6667 8.96147 10.6667 10.2273H12C12 9.32312 12.3512 8.45601 12.9763 7.81668C13.6014 7.17735 14.4493 6.81818 15.3333 6.81818V5.45455ZM20 10.2273C20 8.96147 19.5083 7.7475 18.6332 6.85244C17.758 5.95738 16.571 5.45455 15.3333 5.45455V6.81818C16.2174 6.81818 17.0652 7.17735 17.6904 7.81668C18.3155 8.45601 18.6667 9.32312 18.6667 10.2273H20ZM18.036 12.2236C17.7273 12.6614 17.3212 13.0178 16.8513 13.2635C16.3814 13.5091 15.8611 13.6369 15.3333 13.6364V15C16.0719 15.0005 16.8 14.8215 17.4577 14.4777C18.1154 14.1339 18.6838 13.6352 19.116 13.0227L18.036 12.2236ZM0.666667 1.36364H4V0H0.666667V1.36364ZM4 6.81818H0.666667V8.18182H4V6.81818ZM1.33333 7.5V0.681818H0V7.5H1.33333ZM6.66667 4.09091C6.66667 4.81423 6.38572 5.50792 5.88562 6.01938C5.38552 6.53084 4.70724 6.81818 4 6.81818V8.18182C5.06087 8.18182 6.07828 7.75081 6.82843 6.98362C7.57857 6.21642 8 5.17589 8 4.09091H6.66667ZM4 1.36364C4.70724 1.36364 5.38552 1.65097 5.88562 2.16244C6.38572 2.6739 6.66667 3.36759 6.66667 4.09091H8C8 3.00593 7.57857 1.96539 6.82843 1.1982C6.07828 0.431005 5.06087 0 4 0V1.36364ZM0.666667 8.18182H5.33333V6.81818H0.666667V8.18182ZM5.33333 13.6364H0.666667V15H5.33333V13.6364ZM1.33333 14.3182V7.5H0V14.3182H1.33333ZM8 10.9091C8 11.6324 7.71905 12.3261 7.21895 12.8376C6.71885 13.349 6.04058 13.6364 5.33333 13.6364V15C6.3942 15 7.41162 14.569 8.16176 13.8018C8.91191 13.0346 9.33333 11.9941 9.33333 10.9091H8ZM5.33333 8.18182C6.04058 8.18182 6.71885 8.46915 7.21895 8.98062C7.71905 9.49208 8 10.1858 8 10.9091H9.33333C9.33333 9.82411 8.91191 8.78358 8.16176 8.01638C7.41162 7.24919 6.3942 6.81818 5.33333 6.81818V8.18182ZM11.3333 10.9091H19.3333V9.54545H11.3333V10.9091ZM12 2.72727H18.6667V1.36364H12V2.72727Z" fill="white"/>
</svg>
