<svg xmlns="http://www.w3.org/2000/svg" version="1.1" xmlns:xlink="http://www.w3.org/1999/xlink" xmlns:svgjs="http://svgjs.com/svgjs" width="512" height="512" x="0" y="0" viewBox="0 0 32 32" style="enable-background:new 0 0 512 512" xml:space="preserve" class=""><g><title xmlns="http://www.w3.org/2000/svg">github, coding, dev, developer</title><g xmlns="http://www.w3.org/2000/svg" id="github_coding_dev_developer" data-name="github, coding, dev, developer"><path d="M16,3a13.0014,13.0014,0,0,0-3.4614,25.5332,1,1,0,1,0,.5312-1.9277,10.9976,10.9976,0,1,1,7.0347-.3955,15.8292,15.8292,0,0,0-.3062-3.9161A6.2831,6.2831,0,0,0,24.6787,16a6.4278,6.4278,0,0,0-1.05-3.874,7.1877,7.1877,0,0,0-.397-3.36,1.0011,1.0011,0,0,0-1.0991-.665,7.8981,7.8981,0,0,0-3.3774,1.2812A11.36,11.36,0,0,0,16,9a12.9854,12.9854,0,0,0-3.0049.4316A5.6631,5.6631,0,0,0,9.6191,8.25a1.0069,1.0069,0,0,0-.9716.6631,7.0722,7.0722,0,0,0-.3716,3.1875A7.1988,7.1988,0,0,0,7.1963,16a6.66,6.66,0,0,0,4.96,6.2813c-.0577.2353-.1051.5011-.1466.7891-1.0291.0578-1.5827-.5468-2.3158-1.4776a3.523,3.523,0,0,0-1.9414-1.5362.98.98,0,0,0-1.1513.7627,1.02,1.02,0,0,0,.7524,1.1963c.1587.04.541.5254.7695.8155A4.88,4.88,0,0,0,11.87,25.083,5.4982,5.4982,0,0,0,13.1743,24.9a1.2269,1.2269,0,0,0,.7378-.8779,4.0552,4.0552,0,0,1,.459-1.9131,1,1,0,0,0-.7642-1.6455A4.6128,4.6128,0,0,1,9.1963,16a4.8529,4.8529,0,0,1,.8774-2.9844.9969.9969,0,0,0,.2334-.8242,5.1061,5.1061,0,0,1,.0157-1.8525,3.59,3.59,0,0,1,1.7417.9257.9976.9976,0,0,0,.98.2266A12.0554,12.0554,0,0,1,16,11a9.7053,9.7053,0,0,1,2.6494.4316,1.0013,1.0013,0,0,0,.9614-.1865,5.0776,5.0776,0,0,1,1.9639-.9853,4.222,4.222,0,0,1,.01,1.9052,1.0577,1.0577,0,0,0,.3149,1.002A3.988,3.988,0,0,1,22.6787,16a4.2918,4.2918,0,0,1-4.4106,4.4639,1,1,0,0,0-.6577,1.7529c.5888.5137.5019,4.0352.4692,5.36a1.06,1.06,0,0,0,1.2554.9913A13.002,13.002,0,0,0,16,3Z" fill="#000000" data-original="#000000" class=""></path></g></g></svg>