<?xml version="1.0" encoding="UTF-8" standalone="no"?> <svg xmlns="http://www.w3.org/2000/svg" viewBox="0 0 64 64"><title>1</title><g id="Layer_3" data-name="Layer 3"><path d="M26.17,35.78h-1a.39.39,0,0,1-.35-.41.44.44,0,0,1,.12-.3.33.33,0,0,1,.24-.1h2a1,1,0,0,0,0-2h-.46v-.61a1,1,0,0,0-2,0V33a2.35,2.35,0,0,0-1.2.67,2.42,2.42,0,0,0-.67,1.69,2.38,2.38,0,0,0,2.35,2.41h1a.39.39,0,0,1,.35.41.44.44,0,0,1-.12.3.33.33,0,0,1-.24.1h-2a1,1,0,0,0,0,2h.46v.61a1,1,0,1,0,2,0v-.66a2.35,2.35,0,0,0,1.2-.67,2.42,2.42,0,0,0,.68-1.69A2.38,2.38,0,0,0,26.17,35.78Z"/><path d="M25.65,28.91a7.87,7.87,0,0,0,0,15.74,7.87,7.87,0,0,0,0-15.74Zm0,13.74a5.88,5.88,0,0,1,0-11.74,5.88,5.88,0,0,1,0,11.74Z"/><path d="M60.56,27.83,29,6.35l-.09-.05L24.34,3.18a1,1,0,0,0-1.41.29l-6.1,9.7-4.09-1.27a1,1,0,0,0-1.26.68L9.9,18.1h0l-1.61,5.6H4a1,1,0,0,0-1,1V48.85a1,1,0,0,0,1,1H35.21v4.46s0,0,0,0C35.2,58.08,40.4,61,47,61s11.84-2.91,11.84-6.63V49.57s0,0,0,0V44.74s0,0,0,0V35.06h0a4.12,4.12,0,0,0-.49-1.93l2.47-3.93A1,1,0,0,0,60.56,27.83ZM56.87,49.57a2.57,2.57,0,0,1-.78,1.71c-1.61,1.75-5.16,2.89-9,2.89S39.59,53,38,51.27a2.68,2.68,0,0,1-.77-1.67V48.44a11.3,11.3,0,0,0,4,2,20.58,20.58,0,0,0,11.71,0,11.32,11.32,0,0,0,4-2ZM5,42.15V31.42a6.68,6.68,0,0,0,5.48-5.7H40.81A6.79,6.79,0,0,0,42.21,29c-4.26,1-7,3.34-7,6.07v4.77s0,0,0,0,0,.12,0,.18v4.6s0,0,0,0,0,.06,0,.09v3.06H10.48A6.68,6.68,0,0,0,5,42.15Zm16.08-32a6.31,6.31,0,0,0,2.69.61,6.44,6.44,0,0,0,4.89-2.26L51.09,23.81l-32.28-10ZM50.36,28.7a4.88,4.88,0,0,1-1-3.33l3.31,1L51.93,29Q51.17,28.83,50.36,28.7Zm-4.07-.25c-.57,0-1.13.06-1.67.12a4.79,4.79,0,0,1-1.78-2.86h3.45ZM56.87,44.74a2.57,2.57,0,0,1-.79,1.71,8.55,8.55,0,0,1-3.79,2.13,18.9,18.9,0,0,1-10.53,0A8.54,8.54,0,0,1,38,46.44a2.68,2.68,0,0,1-.77-1.67V43.61a11.53,11.53,0,0,0,3.95,2,14.92,14.92,0,0,0,1.55.4l.14,0a21.12,21.12,0,0,0,4.2.41l1.29,0c.44,0,.87-.07,1.28-.12a18.15,18.15,0,0,0,3.32-.69,11.6,11.6,0,0,0,3.95-2.05Zm0-4.86a2.67,2.67,0,0,1-.78,1.74,8.78,8.78,0,0,1-3.77,2.13,16.23,16.23,0,0,1-3,.61l-1.14.11-1.19,0a19.21,19.21,0,0,1-3.67-.34l-.14,0a13.58,13.58,0,0,1-1.48-.37A8.75,8.75,0,0,1,38,41.61,2.59,2.59,0,0,1,37.21,40V38.8c2.11,1.76,5.69,2.89,9.83,2.89h.3a19.69,19.69,0,0,0,2.47-.17,18.79,18.79,0,0,0,3.53-.8l.13-.06a10.92,10.92,0,0,0,3.4-1.87Zm-.49-6.19A2.38,2.38,0,0,1,56.87,35h0c0,1.43-1.6,2.86-4.17,3.74l-.12,0a16.89,16.89,0,0,1-3,.68,17.57,17.57,0,0,1-2.26.15H47c-5.79,0-9.83-2.44-9.83-4.63,0-2,3.12-3.91,7.27-4.46a18,18,0,0,1,2.62-.17h.19a17.57,17.57,0,0,1,2.39.17,14.91,14.91,0,0,1,2.65.59,10.39,10.39,0,0,1,2.22.94A5.44,5.44,0,0,1,56.38,33.69ZM24.07,5.42l2.92,2A4.47,4.47,0,0,1,24.67,8.7a4.33,4.33,0,0,1-2.52-.23Zm-11,8.71,3.32,1a4.63,4.63,0,0,1-1.92,2,4.36,4.36,0,0,1-2.41.51Zm-1.57,5.46A6.16,6.16,0,0,0,15.31,19l.08,0,.09,0a6.62,6.62,0,0,0,2.89-3.12l25.69,8H10.37Zm-3.1,6.14A4.69,4.69,0,0,1,5,29.38V25.72ZM5,44.19a4.69,4.69,0,0,1,3.46,3.66H5ZM47,59c-5.77,0-9.8-2.42-9.83-4.6V53.27c2.15,1.8,5.8,2.89,9.83,2.89s7.68-1.1,9.83-2.9v1.09h0C56.86,56.56,52.82,59,47,59Zm10-27.52a8.47,8.47,0,0,0-1.21-.88,5,5,0,0,1-.1-3.62l2.89,2Z"/></g></svg>