<svg width="14" height="18" viewBox="0 0 14 18" fill="none" xmlns="http://www.w3.org/2000/svg">
<path d="M6.3595e-05 6.455C6.3595e-05 5.677 0.136063 4.942 0.404063 4.256C0.660117 3.5897 1.04054 2.97818 1.52506 2.454C2.0086 1.93671 2.56193 1.4894 3.16906 1.125C3.79198 0.748156 4.46636 0.463851 5.17106 0.281004C5.88427 0.0937253 6.61867 -0.000721377 7.35606 4.1483e-06C8.49506 4.1483e-06 9.55506 0.241004 10.5381 0.721004C11.5082 1.19225 12.334 1.91545 12.9291 2.815C13.5431 3.73 13.8481 4.765 13.8481 5.919C13.8481 6.611 13.7801 7.288 13.6411 7.95C13.5046 8.61164 13.2876 9.25408 12.9951 9.863C12.7162 10.4525 12.3516 10.9974 11.9131 11.48C11.4723 11.955 10.9386 12.3342 10.3451 12.594C9.70067 12.8764 9.00358 13.0186 8.30006 13.011C7.81106 13.011 7.32306 12.896 6.84106 12.665C6.35906 12.435 6.01306 12.119 5.80506 11.714C5.73206 11.995 5.63206 12.401 5.49906 12.932C5.37106 13.462 5.28506 13.804 5.24706 13.959C5.20706 14.113 5.13306 14.37 5.02506 14.726C4.95182 14.9893 4.85786 15.2465 4.74406 15.495L4.40006 16.169C4.2513 16.4582 4.08499 16.7381 3.90206 17.007C3.72106 17.269 3.49706 17.582 3.23006 17.942L3.08106 17.995L2.98206 17.887C2.87506 16.754 2.82006 16.076 2.82006 15.852C2.82006 15.189 2.89906 14.445 3.05506 13.619C3.20806 12.794 3.45006 11.757 3.77506 10.51C4.10006 9.264 4.28606 8.531 4.33606 8.314C4.10706 7.847 3.99106 7.237 3.99106 6.487C3.99106 5.888 4.17806 5.327 4.55306 4.799C4.92906 4.273 5.40406 4.01 5.98006 4.01C6.42106 4.01 6.76306 4.156 7.00806 4.449C7.25406 4.741 7.37406 5.109 7.37406 5.558C7.37406 6.034 7.21606 6.723 6.89806 7.624C6.58006 8.526 6.42206 9.199 6.42206 9.646C6.42206 10.099 6.58406 10.478 6.90806 10.775C7.22781 11.0722 7.65066 11.2332 8.08706 11.224C8.48306 11.224 8.85006 11.134 9.19106 10.953C9.52673 10.7773 9.81728 10.5265 10.0401 10.22C10.5253 9.5543 10.8712 8.79753 11.0571 7.995C11.1531 7.573 11.2271 7.172 11.2731 6.795C11.3221 6.416 11.3431 6.058 11.3431 5.718C11.3431 4.471 10.9471 3.499 10.1601 2.803C9.36906 2.107 8.33906 1.761 7.07206 1.761C5.63106 1.761 4.42606 2.227 3.46106 3.162C2.49506 4.094 2.00906 5.279 2.00906 6.716C2.00906 7.033 2.05706 7.339 2.14806 7.635C2.23706 7.93 2.33406 8.165 2.43906 8.339C2.54306 8.51 2.64106 8.677 2.73006 8.831C2.82006 8.985 2.86706 9.095 2.86706 9.161C2.86706 9.363 2.81406 9.626 2.70706 9.951C2.59606 10.276 2.46506 10.438 2.30706 10.438C2.29206 10.438 2.23006 10.427 2.12206 10.404C1.74803 10.2923 1.41024 10.0836 1.14306 9.799C0.859501 9.50406 0.635718 9.15701 0.484063 8.777C0.332841 8.39836 0.215059 8.0072 0.132064 7.608C0.0423952 7.23028 -0.00191753 6.84322 6.3595e-05 6.455V6.455Z" fill="#0E1D28"/>
</svg>
