<?xml version="1.0" encoding="UTF-8" standalone="no"?><svg viewBox="0 0 512 512" xmlns="http://www.w3.org/2000/svg" xmlns:xlink="http://www.w3.org/1999/xlink"><style>:root>svg{display:none}:root>svg:target{display:block}</style><svg viewBox="0 0 64 64" id="adaptive" xmlns="http://www.w3.org/2000/svg"><path d="M59 4H5a3 3 0 00-3 3v32a3 3 0 003 3h3v9a3 3 0 003 3h32a3 3 0 003-3v-1h6a3 3 0 003-3v-5h4a3 3 0 003-3V7a3 3 0 00-3-3zM8 40H5a1 1 0 01-1-1v-3h4zm36 11a1 1 0 01-1 1H11a1 1 0 01-1-1V33a1 1 0 011-1h24v15a3 3 0 003 3h6zm9-4a1 1 0 01-1 1H38a1 1 0 01-1-1V19a1 1 0 011-1h1a3 3 0 003 3h6a3 3 0 003-3h1a1 1 0 011 1zM41 18h8a1 1 0 01-1 1h-6a1 1 0 01-1-1zm19 21a1 1 0 01-1 1h-4v-4h5zm0-5h-5V19a3 3 0 00-3-3H38a3 3 0 00-3 3v11H11a3 3 0 00-3 3v1H4V7a1 1 0 011-1h54a1 1 0 011 1zM46.875 55H30a1 1 0 00-1 1h-4a1 1 0 00-1-1H7.125a1 1 0 00-.96 1.28l.455 1.56A3.015 3.015 0 009.5 60h35a3.015 3.015 0 002.88-2.16l.455-1.56a1 1 0 00-.96-1.28zM9.5 58a1.006 1.006 0 01-.96-.72L8.458 57H23a1 1 0 001 1zm35.96-.72a1.006 1.006 0 01-.96.72H30a1 1 0 001-1h14.542z"/></svg><svg viewBox="0 0 512 512" id="analysis" xmlns="http://www.w3.org/2000/svg"><path fill-rule="evenodd" clip-rule="evenodd" d="M131.714 16a8.287 8.287 0 00-5.859 2.427l-99.428 99.428A8.287 8.287 0 0024 123.714v348c0 13.728 11.129 24.857 24.857 24.857h348c13.728 0 24.857-11.129 24.857-24.857v-65.698l8.23 8.23c10.339 10.339 27.102 10.339 37.44 0l12.862-12.862c10.339-10.338 10.339-27.101 0-37.44l-58.532-58.532V40.857C421.714 27.13 410.585 16 396.857 16H131.714zm273.429 277.091V40.857a8.286 8.286 0 00-8.286-8.286H140v91.143a8.286 8.286 0 01-8.286 8.286H40.571v339.714A8.286 8.286 0 0048.857 480h348a8.286 8.286 0 008.286-8.286v-82.269l-39.506-39.506c-10.339-10.339-10.339-27.102 0-37.441l.572-.571-14.226-14.226c-40.479 34.787-100.558 34.786-141.036-.003a8.1 8.1 0 01-.518.016h-95.286a8.285 8.285 0 110-16.571h80.164a107.662 107.662 0 01-19.43-41.429h-69.02a8.285 8.285 0 110-16.571h66.557a108.726 108.726 0 015.097-41.429h-63.368a8.285 8.285 0 110-16.571h70.366c4.961-9.453 11.415-18.327 19.361-26.273 42.303-42.303 110.89-42.303 153.193 0 40.332 40.332 42.211 104.555 5.638 147.113l14.226 14.226.571-.572c7.21-7.21 17.544-9.392 26.645-6.546zM123.429 44.289l-71.14 71.14h71.14v-71.14zm107.714 137.425a8.286 8.286 0 000 16.572h99.428a8.286 8.286 0 000-16.572h-99.428zm-10.357 49.715a8.285 8.285 0 100 16.571H343a8.286 8.286 0 000-16.571H220.786zM106.857 339.143a8.285 8.285 0 100 16.571h232a8.285 8.285 0 100-16.571h-232zm0 66.286a8.286 8.286 0 018.286-8.286h215.428a8.286 8.286 0 110 16.571H115.143a8.285 8.285 0 01-8.286-8.285zm109.731-254.841c35.831-35.832 93.926-35.832 129.757 0 35.832 35.831 35.832 93.926 0 129.757-35.831 35.832-93.926 35.832-129.757 0-35.832-35.831-35.832-93.926 0-129.757zm173.628 160.767c3.868-3.868 10.138-3.868 14.005 0l64.307 64.307c3.867 3.867 3.867 10.137 0 14.005l-12.861 12.861c-3.868 3.867-10.138 3.867-14.005 0l-64.307-64.307c-3.867-3.867-3.867-10.137 0-14.005l12.861-12.861z"/></svg><svg viewBox="0 0 51 8" id="arrow-left" xmlns="http://www.w3.org/2000/svg"><path d="M.646 3.646a.5.5 0 000 .708l3.182 3.182a.5.5 0 10.708-.708L1.707 4l2.829-2.828a.5.5 0 10-.708-.708L.646 3.646zM51 3.5H1v1h50v-1z"/></svg><svg viewBox="0 0 51 8" id="arrow-right" xmlns="http://www.w3.org/2000/svg"><path d="M50.354 3.646a.5.5 0 010 .708l-3.182 3.182a.5.5 0 11-.707-.708L49.293 4l-2.828-2.828a.5.5 0 11.707-.708l3.182 3.182zM0 3.5h50v1H0v-1z"/></svg><svg viewBox="0 0 20 15" id="behance" xmlns="http://www.w3.org/2000/svg"><path d="M19.333 10.227v.682H20v-.682h-.667zM.667.682V0H0v.682h.667zm0 13.636H0V15h.667v-.682zm10-4.09c0 1.265.491 2.479 1.367 3.374a4.615 4.615 0 003.3 1.398v-1.364c-.885 0-1.733-.359-2.358-.998a3.45 3.45 0 01-.976-2.41h-1.333zm4.666-4.773a4.615 4.615 0 00-3.3 1.397 4.828 4.828 0 00-1.366 3.375H12c0-.904.351-1.771.976-2.41a3.296 3.296 0 012.357-.999V5.455zM20 10.227c0-1.266-.492-2.48-1.367-3.375a4.615 4.615 0 00-3.3-1.397v1.363c.884 0 1.732.36 2.357.999.625.639.977 1.506.977 2.41H20zm-1.964 1.997a3.35 3.35 0 01-1.185 1.04 3.27 3.27 0 01-1.518.372V15c.739 0 1.467-.178 2.125-.522a4.692 4.692 0 001.658-1.455l-1.08-.8zM.666 1.364H4V0H.667v1.364zM4 6.818H.667v1.364H4V6.818zM1.333 7.5V.682H0V7.5h1.333zm5.334-3.41c0 .724-.281 1.418-.781 1.93-.5.51-1.179.798-1.886.798v1.364c1.06 0 2.078-.431 2.828-1.198A4.139 4.139 0 008 4.09H6.667zM4 1.365c.707 0 1.386.287 1.886.798.5.512.78 1.206.78 1.929H8a4.139 4.139 0 00-1.172-2.893A3.955 3.955 0 004 0v1.364zM.667 8.182h4.666V6.818H.667v1.364zm4.666 5.454H.667V15h4.666v-1.364zm-4 .682V7.5H0v6.818h1.333zM8 10.91a2.76 2.76 0 01-.781 1.929c-.5.511-1.178.798-1.886.798V15c1.061 0 2.079-.431 2.829-1.198a4.138 4.138 0 001.171-2.893H8zM5.333 8.182c.708 0 1.386.287 1.886.799.5.511.781 1.205.781 1.928h1.333a4.139 4.139 0 00-1.171-2.893 3.955 3.955 0 00-2.829-1.198v1.364zm6 2.727h8V9.545h-8v1.364zM12 2.727h6.667V1.364H12v1.363z"/></svg><svg viewBox="0 0 18 18" id="close" xmlns="http://www.w3.org/2000/svg"><defs><path id="fa" d="M691.485 160.07l-1.414 1.415-7.071-7.071-7.071 7.071-1.414-1.414 7.07-7.071-7.07-7.071 1.414-1.415 7.07 7.071 7.072-7.07 1.414 1.414-7.07 7.07z"/></defs><use xlink:href="#fa" transform="translate(-674 -144)"/></svg><svg viewBox="0 0 64 64" id="cv" xmlns="http://www.w3.org/2000/svg"><path d="M52.5 3h-32a5 5 0 00-5 5v23h-8a1 1 0 00-1 1v23.5A5.51 5.51 0 0012 61h40.5a5 5 0 005-5V8a5 5 0 00-5-5zm-44 52.5V33h7v22.5a3.5 3.5 0 11-7 0zm47 .5a3 3 0 01-3 3h-35V8a3 3 0 013-3h32a3 3 0 013 3v48z"/><path d="M26.83 22.34a8.679 8.679 0 006.47-2.9 1.49 1.49 0 00.18-.3 1.05 1.05 0 000-.61 6.831 6.831 0 00-3.7-4.53 4 4 0 10-5.9 0 6.82 6.82 0 00-3.72 4.51 1.06 1.06 0 000 .68 1 1 0 00.22.32 8.601 8.601 0 006.45 2.83zm-2-11.08a2 2 0 112 2 1.999 1.999 0 01-2.01-2h.01zm2 4a4.88 4.88 0 014.58 3.23 6.65 6.65 0 01-9.18 0 4.88 4.88 0 014.59-3.22l.01-.01zM37.54 12.26h5.14a1 1 0 100-2h-5.14a1 1 0 000 2zM37.54 18h13.92a1 1 0 100-2H37.54a1 1 0 000 2zM51.68 25.71H21.32a1 1 0 000 2h30.36a1 1 0 000-2zM51.68 32.14H21.32a1 1 0 000 2h30.36a1 1 0 000-2zM51.68 38.57H21.32a1 1 0 000 2h30.36a1 1 0 000-2zM51.68 45H21.32a1 1 0 000 2h30.36a1 1 0 000-2zM51.68 51.43H21.32a1 1 0 000 2h30.36a1 1 0 000-2z"/></svg><svg viewBox="0 0 32 32" id="github" xmlns="http://www.w3.org/2000/svg"><path d="M16 3a13.001 13.001 0 00-3.461 25.533 1 1 0 10.53-1.928 10.998 10.998 0 117.035-.395 15.83 15.83 0 00-.306-3.916A6.283 6.283 0 0024.678 16a6.428 6.428 0 00-1.05-3.874 7.188 7.188 0 00-.396-3.36 1.001 1.001 0 00-1.1-.665 7.898 7.898 0 00-3.377 1.281A11.36 11.36 0 0016 9a12.985 12.985 0 00-3.005.432A5.663 5.663 0 009.62 8.25a1.007 1.007 0 00-.972.663 7.072 7.072 0 00-.371 3.188A7.199 7.199 0 007.196 16a6.66 6.66 0 004.96 6.281 8.39 8.39 0 00-.146.79c-1.03.057-1.583-.547-2.316-1.478a3.523 3.523 0 00-1.941-1.536.98.98 0 00-1.152.762 1.02 1.02 0 00.753 1.197c.158.04.54.525.77.815a4.88 4.88 0 003.746 2.252 5.498 5.498 0 001.304-.183 1.227 1.227 0 00.738-.878 4.055 4.055 0 01.46-1.913 1 1 0 00-.765-1.646A4.613 4.613 0 019.197 16a4.853 4.853 0 01.877-2.984.997.997 0 00.233-.825 5.106 5.106 0 01.016-1.852 3.59 3.59 0 011.742.926.998.998 0 00.98.226A12.055 12.055 0 0116 11a9.705 9.705 0 012.65.432 1.001 1.001 0 00.96-.187 5.078 5.078 0 011.965-.985 4.222 4.222 0 01.01 1.905 1.058 1.058 0 00.315 1.002A3.988 3.988 0 0122.679 16a4.292 4.292 0 01-4.41 4.464 1 1 0 00-.659 1.753c.59.514.502 4.035.47 5.36a1.06 1.06 0 001.255.991A13.002 13.002 0 0016 3z" data-original="#000000" data-name="github, coding, dev, developer"/></svg><svg viewBox="0 0 24 24" id="instagram" xmlns="http://www.w3.org/2000/svg"><path d="M12 0C8.74 0 8.333.015 7.053.072 5.775.132 4.905.333 4.14.63c-.789.306-1.459.717-2.126 1.384S.935 3.35.63 4.14C.333 4.905.131 5.775.072 7.053.012 8.333 0 8.74 0 12s.015 3.667.072 4.947c.06 1.277.261 2.148.558 2.913a5.885 5.885 0 001.384 2.126A5.868 5.868 0 004.14 23.37c.766.296 1.636.499 2.913.558C8.333 23.988 8.74 24 12 24s3.667-.015 4.947-.072c1.277-.06 2.148-.262 2.913-.558a5.898 5.898 0 002.126-1.384 5.86 5.86 0 001.384-2.126c.296-.765.499-1.636.558-2.913.06-1.28.072-1.687.072-4.947s-.015-3.667-.072-4.947c-.06-1.277-.262-2.149-.558-2.913a5.89 5.89 0 00-1.384-2.126A5.847 5.847 0 0019.86.63c-.765-.297-1.636-.499-2.913-.558C15.667.012 15.26 0 12 0zm0 2.16c3.203 0 3.585.016 4.85.071 1.17.055 1.805.249 2.227.415.562.217.96.477 1.382.896.419.42.679.819.896 1.381.164.422.36 1.057.413 2.227.057 1.266.07 1.646.07 4.85s-.015 3.585-.074 4.85c-.061 1.17-.256 1.805-.421 2.227a3.81 3.81 0 01-.899 1.382 3.744 3.744 0 01-1.38.896c-.42.164-1.065.36-2.235.413-1.274.057-1.649.07-4.859.07-3.211 0-3.586-.015-4.859-.074-1.171-.061-1.816-.256-2.236-.421a3.716 3.716 0 01-1.379-.899 3.644 3.644 0 01-.9-1.38c-.165-.42-.359-1.065-.42-2.235-.045-1.26-.061-1.649-.061-4.844 0-3.196.016-3.586.061-4.861.061-1.17.255-1.814.42-2.234.21-.57.479-.96.9-1.381.419-.419.81-.689 1.379-.898.42-.166 1.051-.361 2.221-.421 1.275-.045 1.65-.06 4.859-.06l.045.03zm0 3.678a6.162 6.162 0 100 12.324 6.162 6.162 0 100-12.324zM12 16c-2.21 0-4-1.79-4-4s1.79-4 4-4 4 1.79 4 4-1.79 4-4 4zm7.846-10.405a1.441 1.441 0 01-2.88 0 1.44 1.44 0 012.88 0z"/></svg><svg viewBox="0 0 24 24" id="linkedin" xmlns="http://www.w3.org/2000/svg"><path d="M18.59 24l4.66-.001a.75.75 0 00.75-.75c-.35-7.857 1.842-16.148-6.338-16.148-1.573 0-2.826.537-3.729 1.247 0-1.461-1.579-.653-5.224-.87a.75.75 0 00-.75.75c.302 14.166-.674 15.771.75 15.771h4.66c1.353 0 .492-1.908.75-8.188 0-2.594.75-3.102 2.046-3.102 1.434 0 1.675.996 1.675 3.228.257 6.167-.598 8.063.75 8.063zm-2.425-12.791c-4.491 0-3.546 4.938-3.546 11.29h-3.16V8.978h2.974v1.298c0 .72 1.097 1.074 1.479.35.492-.934 1.77-2.025 3.75-2.025 3.527 0 4.838 1.733 4.838 6.396V22.5h-3.16c0-7.144.756-11.291-3.175-11.291zM1.122 7.479c-1.42 0-.448 1.585-.75 15.771 0 .414.336.75.75.75h4.665c1.42 0 .448-1.585.75-15.771 0-1.295-1.881-.531-5.415-.75zM5.037 22.5H1.872V8.979h3.165zM3.452 0c-4.576 0-4.548 6.929 0 6.929 4.545 0 4.581-6.929 0-6.929zm0 5.429C.884 5.429.86 1.5 3.452 1.5c2.597 0 2.564 3.929 0 3.929z" data-original="#000000"/></svg><svg viewBox="0 0 64 64" id="money" xmlns="http://www.w3.org/2000/svg"><g data-name="Layer 3"><path d="M26.17 35.78h-1a.39.39 0 01-.35-.41.44.44 0 01.12-.3.33.33 0 01.24-.1h2a1 1 0 000-2h-.46v-.61a1 1 0 00-2 0V33a2.35 2.35 0 00-1.2.67 2.42 2.42 0 00-.67 1.69 2.38 2.38 0 002.35 2.41h1a.39.39 0 01.35.41.44.44 0 01-.12.3.33.33 0 01-.24.1h-2a1 1 0 000 2h.46v.61a1 1 0 102 0v-.66a2.35 2.35 0 001.2-.67 2.42 2.42 0 00.68-1.69 2.38 2.38 0 00-2.36-2.39z"/><path d="M25.65 28.91a7.87 7.87 0 000 15.74 7.87 7.87 0 000-15.74zm0 13.74a5.88 5.88 0 010-11.74 5.88 5.88 0 010 11.74z"/><path d="M60.56 27.83L29 6.35l-.09-.05-4.57-3.12a1 1 0 00-1.41.29l-6.1 9.7-4.09-1.27a1 1 0 00-1.26.68L9.9 18.1l-1.61 5.6H4a1 1 0 00-1 1v24.15a1 1 0 001 1h31.21v4.46C35.2 58.08 40.4 61 47 61s11.84-2.91 11.84-6.63V35.06a4.12 4.12 0 00-.49-1.93l2.47-3.93a1 1 0 00-.26-1.37zm-3.69 21.74a2.57 2.57 0 01-.78 1.71c-1.61 1.75-5.16 2.89-9 2.89S39.59 53 38 51.27a2.68 2.68 0 01-.77-1.67v-1.16a11.3 11.3 0 004 2 20.58 20.58 0 0011.71 0 11.32 11.32 0 004-2zM5 42.15V31.42a6.68 6.68 0 005.48-5.7h30.33a6.79 6.79 0 001.4 3.28c-4.26 1-7 3.34-7 6.07v12.7H10.48A6.68 6.68 0 005 42.15zm16.08-32a6.31 6.31 0 002.69.61 6.44 6.44 0 004.89-2.26l22.43 15.31-32.28-10zM50.36 28.7a4.88 4.88 0 01-1-3.33l3.31 1-.74 2.63q-.76-.17-1.57-.3zm-4.07-.25c-.57 0-1.13.06-1.67.12a4.79 4.79 0 01-1.78-2.86h3.45zm10.58 16.29a2.57 2.57 0 01-.79 1.71 8.55 8.55 0 01-3.79 2.13 18.9 18.9 0 01-10.53 0A8.54 8.54 0 0138 46.44a2.68 2.68 0 01-.77-1.67v-1.16a11.53 11.53 0 003.95 2 14.92 14.92 0 001.55.4h.14a21.12 21.12 0 004.2.41h1.29c.44 0 .87-.07 1.28-.12a18.15 18.15 0 003.32-.69 11.6 11.6 0 003.95-2.05zm0-4.86a2.67 2.67 0 01-.78 1.74 8.78 8.78 0 01-3.77 2.13 16.23 16.23 0 01-3 .61l-1.14.11h-1.19a19.21 19.21 0 01-3.67-.34h-.14a13.58 13.58 0 01-1.48-.37 8.75 8.75 0 01-3.7-2.15 2.59 2.59 0 01-.79-1.61v-1.2c2.11 1.76 5.69 2.89 9.83 2.89h.3a19.69 19.69 0 002.47-.17 18.79 18.79 0 003.53-.8l.13-.06a10.92 10.92 0 003.4-1.87zm-.49-6.19a2.38 2.38 0 01.49 1.31c0 1.43-1.6 2.86-4.17 3.74h-.12a16.89 16.89 0 01-3 .68 17.57 17.57 0 01-2.26.15H47c-5.79 0-9.83-2.44-9.83-4.63 0-2 3.12-3.91 7.27-4.46a18 18 0 012.62-.17h.19a17.57 17.57 0 012.39.17 14.91 14.91 0 012.65.59 10.39 10.39 0 012.22.94 5.44 5.44 0 011.87 1.68zM24.07 5.42l2.92 2a4.47 4.47 0 01-2.32 1.28 4.33 4.33 0 01-2.52-.23zm-11 8.71l3.32 1a4.63 4.63 0 01-1.92 2 4.36 4.36 0 01-2.41.51zm-1.57 5.46a6.16 6.16 0 003.81-.59H15.48a6.62 6.62 0 002.89-3.12l25.69 8H10.37zm-3.1 6.14A4.69 4.69 0 015 29.38v-3.66zM5 44.19a4.69 4.69 0 013.46 3.66H5zM47 59c-5.77 0-9.8-2.42-9.83-4.6v-1.13c2.15 1.8 5.8 2.89 9.83 2.89s7.68-1.1 9.83-2.9v1.09C56.86 56.56 52.82 59 47 59zm10-27.52a8.47 8.47 0 00-1.21-.88 5 5 0 01-.1-3.62l2.89 2z"/></g></svg><svg viewBox="0 0 14 18" id="pinterest" xmlns="http://www.w3.org/2000/svg"><path d="M0 6.455c0-.778.136-1.513.404-2.199a5.63 5.63 0 011.121-1.802A7.614 7.614 0 013.17 1.125 7.513 7.513 0 015.171.281 8.57 8.57 0 017.356 0c1.14 0 2.2.241 3.182.721a6.022 6.022 0 012.391 2.094c.614.915.92 1.95.92 3.104 0 .692-.069 1.369-.208 2.031a8.284 8.284 0 01-.646 1.913 6.605 6.605 0 01-1.082 1.617c-.44.475-.974.854-1.568 1.114a4.962 4.962 0 01-2.045.417c-.489 0-.977-.115-1.459-.346-.482-.23-.828-.546-1.036-.951-.073.281-.173.687-.306 1.218-.128.53-.214.872-.252 1.027-.04.154-.114.411-.222.767-.073.263-.167.52-.28.769l-.345.674c-.149.29-.315.57-.498.838-.18.262-.405.575-.672.935l-.149.053-.099-.108c-.107-1.133-.162-1.811-.162-2.035 0-.663.08-1.407.235-2.233.153-.825.395-1.862.72-3.109.325-1.246.511-1.979.561-2.196-.229-.467-.345-1.077-.345-1.827 0-.599.187-1.16.562-1.688.376-.526.851-.789 1.427-.789.441 0 .783.146 1.028.439.246.292.366.66.366 1.109 0 .476-.158 1.165-.476 2.066-.318.902-.476 1.575-.476 2.022 0 .453.162.832.486 1.129.32.297.743.458 1.18.449.395 0 .762-.09 1.103-.271a2.46 2.46 0 00.85-.733 6.124 6.124 0 001.016-2.225c.096-.422.17-.823.216-1.2.05-.379.07-.737.07-1.077 0-1.247-.396-2.219-1.183-2.915-.79-.696-1.82-1.042-3.088-1.042-1.44 0-2.646.466-3.61 1.401-.967.932-1.453 2.117-1.453 3.554 0 .317.048.623.14.919.088.295.185.53.29.704.104.171.202.338.291.492.09.154.137.264.137.33 0 .202-.053.465-.16.79-.11.325-.242.487-.4.487-.015 0-.077-.011-.185-.034a2.21 2.21 0 01-.979-.605 3.17 3.17 0 01-.659-1.022 6.986 6.986 0 01-.352-1.169A4.884 4.884 0 010 6.455z"/></svg><svg viewBox="0 0 32 36" id="play" xmlns="http://www.w3.org/2000/svg"><path d="M30 16.268c1.333.77 1.333 2.694 0 3.464L4.5 34.455c-1.333.77-3-.193-3-1.733V3.278c0-1.54 1.667-2.502 3-1.732L30 16.268z"/></svg><svg viewBox="0 0 512 512" id="whatsapp" xmlns="http://www.w3.org/2000/svg"><path d="M440.164 71.836C393.84 25.511 332.249 0 266.737 0S139.633 25.511 93.308 71.836 21.473 179.751 21.473 245.263c0 41.499 10.505 82.279 30.445 118.402L0 512l148.333-51.917c36.124 19.938 76.904 30.444 118.403 30.444 65.512 0 127.104-25.512 173.427-71.836C486.488 372.367 512 310.776 512 245.263S486.488 118.16 440.164 71.836zM266.737 460.495c-38.497 0-76.282-10.296-109.267-29.776l-6.009-3.549-102.509 35.877L84.83 360.539l-3.549-6.009c-19.479-32.985-29.775-70.769-29.775-109.266 0-118.679 96.553-215.231 215.231-215.231s215.231 96.553 215.231 215.231c0 118.679-96.553 215.231-215.231 215.231z"/><path d="M398.601 304.521l-35.392-35.393c-11.709-11.71-30.762-11.71-42.473 0l-13.538 13.538c-32.877-17.834-60.031-44.988-77.866-77.865l13.538-13.539c5.673-5.672 8.796-13.214 8.796-21.236s-3.124-15.564-8.796-21.236l-35.393-35.393c-5.672-5.672-13.214-8.796-21.236-8.796-8.023 0-15.564 3.124-21.236 8.796l-28.314 28.314c-15.98 15.98-16.732 43.563-2.117 77.664 12.768 29.791 36.145 62.543 65.825 92.223s62.432 53.057 92.223 65.825c16.254 6.965 31.022 10.44 43.763 10.44 13.992 0 25.538-4.193 33.901-12.557l28.314-28.314c5.673-5.672 8.796-13.214 8.796-21.236s-3.123-15.563-8.795-21.235zm-49.549 49.551c-6.321 6.32-23.827 4.651-44.599-4.252-26.362-11.298-55.775-32.414-82.818-59.457s-48.158-56.455-59.457-82.818c-8.903-20.772-10.571-38.278-4.252-44.599l28.315-28.314 35.393 35.393-28.719 28.719 4.53 9.563c22.022 46.49 59.753 84.221 106.244 106.244l9.563 4.53 28.719-28.719 35.393 35.393-28.312 28.317z"/></svg></svg>